<?xml version="1.0" encoding="UTF-8" standalone="no"?>
<svg
   xmlns:dc="http://purl.org/dc/elements/1.1/"
   xmlns:cc="http://creativecommons.org/ns#"
   xmlns:rdf="http://www.w3.org/1999/02/22-rdf-syntax-ns#"
   xmlns:svg="http://www.w3.org/2000/svg"
   xmlns="http://www.w3.org/2000/svg"
   xmlns:sodipodi="http://sodipodi.sourceforge.net/DTD/sodipodi-0.dtd"
   xmlns:inkscape="http://www.inkscape.org/namespaces/inkscape"
   inkscape:version="1.0 (1.0+r73+1)"
   inkscape:output_extension="org.inkscape.output.svg.inkscape"
   version="1.0"
   sodipodi:version="0.32"
   viewBox="0 0 182.26 86.661"
   sodipodi:docname="diver.svg"
   id="svg2469">
  <defs
     id="defs2471">
    <linearGradient
       inkscape:collect="always"
       x1="-534.62"
       y1="562.14"
       gradientTransform="matrix(.37756 0 0 .49943 -202.03 81.963)"
       x2="-413.5"
       gradientUnits="userSpaceOnUse"
       y2="562.14"
       id="linearGradient3444">
      <stop
         offset="0"
         style="stop-color:#86b9c8"
         id="stop3277" />
      <stop
         offset="1"
         style="stop-color:#a5c074;stop-opacity:0"
         id="stop3279" />
    </linearGradient>
    <filter
       id="filter3843"
       inkscape:collect="always"
       color-interpolation-filters="sRGB">
      <feGaussianBlur
         id="feGaussianBlur3845"
         stdDeviation="9.4132813"
         inkscape:collect="always" />
    </filter>
  </defs>
  <sodipodi:namedview
     inkscape:window-maximized="1"
     inkscape:document-rotation="0"
     inkscape:document-units="px"
     inkscape:pageopacity="0.0"
     inkscape:window-width="1920"
     inkscape:window-x="0"
     inkscape:window-y="0"
     inkscape:cy="24.172275"
     inkscape:cx="95.109016"
     inkscape:current-layer="use3388"
     borderopacity="1.0"
     showgrid="false"
     objecttolerance="10"
     inkscape:zoom="5.6"
     inkscape:window-height="1027"
     gridtolerance="10000"
     pagecolor="#ffffff"
     guidetolerance="10"
     inkscape:pageshadow="2"
     bordercolor="#666666"
     id="base" />
  <g
     transform="translate(-31.73 -34.746)"
     inkscape:groupmode="layer"
     inkscape:label="Layer 1"
     id="layer1">
    <g
       transform="matrix(.47352 0 0 .62539 361.13 -173.11)"
       id="use3388">
      <path
         d="m-423.49 386.93s23.62 22.18 37.51 27.8c0.63 0.26 2.33 0.37 2.33 0.37l37.3-20 1.83 6.76-35.25 21.66s-2.57 2.54-4.05 2.49c-1.47-0.05-4.56-2.05-4.56-2.05l-42.46-32.07 7.35-4.96z"
         style="fill-rule:evenodd;fill:#272e56"
         sodipodi:nodetypes="csccccsccc"
         id="path3398" />
      <path
         sodipodi:cx="-406.42856"
         sodipodi:cy="374.50504"
         transform="matrix(1.5172 0 0 1.5172 220.94 -204.42)"
         d="m-385.71 374.51a20.714 20.714 0 1 1 -41.43 0 20.714 20.714 0 1 1 41.43 0z"
         sodipodi:type="arc"
         style="fill:#f4d7d7"
         sodipodi:ry="20.714285"
         sodipodi:rx="20.714285"
         id="path3400" />
      <path
         d="m-425.29 374.93l-73.64 19.93 8.36 36.43s17.38-4.47 23.94-7.27c23.31-9.97 52.34-35.94 52.34-35.94l-11-13.15z"
         style="fill-rule:evenodd;fill:#272e56"
         sodipodi:nodetypes="cccscc"
         id="path3402" />
      <path
         d="m-489.81 431.08s-42.79 12.58-61.62 12.71c-12.99-2.34-58.57-11.43-58.57-11.43l4.29-12.28s53.25 8.04 55.71 8c2.65-0.05 37.14-12.86 37.14-12.86s-50.94 3.48-55.71 2.86-55.04-13.29-55.04-13.29l7.82-11.29s44 8.66 50.37 10.01c0.97 0.2 2.31 0.41 3.31 0.37 11.21-0.41 63.92-9.09 63.92-9.09l8.38 36.29z"
         style="fill-rule:evenodd;fill:#272e56"
         sodipodi:nodetypes="cccczczccsscc"
         id="path3404" />
      <path
         sodipodi:cx="-449.77042"
         sodipodi:cy="478.34299"
         transform="matrix(.90045 0 0 .91686 33.575 -77.393)"
         d="m-445.98 478.34a3.7881 4.2931 0 1 1 -7.58 0 3.7881 4.2931 0 1 1 7.58 0z"
         sodipodi:type="arc"
         style="fill:#05080c"
         sodipodi:ry="4.2931485"
         sodipodi:rx="3.7880721"
         id="path3406" />
      <path
         sodipodi:cx="-449.77042"
         sodipodi:cy="478.34299"
         transform="translate(63.64 -116.67)"
         d="m-445.98 478.34a3.7881 4.2931 0 1 1 -7.58 0 3.7881 4.2931 0 1 1 7.58 0z"
         sodipodi:type="arc"
         style="fill:#05080c"
         sodipodi:ry="4.2931485"
         sodipodi:rx="3.7880721"
         id="path3408" />
      <path
         d="m-395.71 332.36c-17.35 0-31.44 14.09-31.44 31.44s14.09 31.41 31.44 31.41c4.94 0 9.62-1.13 13.78-3.16-18.34-1.87-32.34-11.9-32.34-23.97 0-13.41 17.27-24.28 38.56-24.28 1.48 0 2.94 0.05 4.38 0.16-5.77-7.08-14.55-11.6-24.38-11.6z"
         style="fill:#272e56"
         id="path3410" />
      <path
         d="m-401.06 352.84c3.27-4.32 7.32-5.89 14.93-5.77 4.29 0.08 7.14-0.02 10.75 0.1 4.94 0.16 9.28-0.97 12.39 3.09 3.42 3.83 3.92 12.5 2.86 18.56-0.79 4.5-2.91 6.23-6.13 7.05-3.26 0.84-3.56 1.22-6.45-1.75-1.42-1.78-3.57-5.7-5.96-4.67-2.56 1.25-6.24 5.5-8.81 6.78-2.37 1.48-5.01 2.02-7.59 2.4-4.16-0.17-7.16-5.22-8.11-10.2-1.11-5.26-0.99-11.48 2.12-15.59z"
         style="fill-rule:evenodd;stroke:#264e26;stroke-width:1.8238;fill:url(#linearGradient3444)"
         sodipodi:nodetypes="csscsscccccs"
         id="path3412" />
      <rect
         x="-595.41"
         y="246.27"
         width="89.043"
         height="25.783"
         ry="11.871"
         rx="18.567"
         transform="matrix(.97471 -.22345 .22345 .97471 0 0)"
         style="fill:#e7c54d"
         id="rect3414" />
      <rect
         x="-388.57"
         y="376.65"
         width="20"
         height="22.857"
         ry="9.2714"
         rx="8.9429"
         style="fill:#1f2611"
         id="rect3416" />
      <rect
         x="-513.39"
         y="248.7"
         width="12.857"
         height="11.429"
         ry="9.2714"
         rx="4.9022"
         transform="matrix(.97296 -.23096 .23096 .97296 0 0)"
         style="fill:#4c7aa9"
         id="rect3418" />
      <path
         d="m-475.28 387.68c-2.31 3.45 5.43 36.75 10.08 37.83 6.83 1.6 29.25-17.24 29.25-17.24s-2.46-19.05 0.07-23.11c1.78-2.86 6.09-4.55 9.09-3.03 3.09 1.55 5.37 11.95 5.37 11.95s5.71-2.31 5.43-4.03c-1.02-6.18-3-12.17-13.32-14.71-10.31-2.54-44.51 10.17-45.97 12.34z"
         style="fill-rule:evenodd;fill:#9b6f25"
         sodipodi:nodetypes="cscsscszs"
         id="path3420" />
      <g
         transform="matrix(.19236 .73326 -.83243 .16944 28.614 702.66)"
         id="g3422">
        <rect
           x="-539.37"
           y="494.11"
           width="50.577"
           height="5.3052"
           style="fill:#e1561f"
           id="rect3424" />
        <rect
           x="-536.29"
           y="491.3"
           width="6.566"
           height="11.112"
           style="stroke-linejoin:round;stroke:#dfe109;stroke-linecap:round;stroke-width:3;fill:none"
           id="rect3426" />
        <rect
           x="-498.51"
           y="491.22"
           width="6.566"
           height="11.112"
           style="stroke-linejoin:round;stroke:#dfe109;stroke-linecap:round;stroke-width:3;fill:none"
           id="rect3428" />
        <rect
           x="-518.99"
           y="491.45"
           width="9.1329"
           height="10.648"
           style="stroke-linejoin:round;stroke:#dfe109;stroke-linecap:round;stroke-width:3.4636;fill:none"
           id="rect3430" />
      </g>
      <path
         d="m-619.7 387.08c3.22 0.91 4.47 6.57 4.47 6.57l-8.12 11.16-9.09-1.89-41.42 22.68-21.77-26.65 57.31-4.02s12.89-9.49 18.62-7.85z"
         style="fill-rule:evenodd;fill:#202711"
         sodipodi:nodetypes="cccccccs"
         id="path3432" />
      <path
         d="m-611.43 415.22c3.33-0.37 6.43 5.71 6.43 5.71l-4.1 11.63-10.19 3.37-37.85 35-27.02-24.74 58.45-16.68s8.36-13.64 14.28-14.29z"
         style="fill-rule:evenodd;fill:#202711"
         sodipodi:nodetypes="cccccccs"
         id="path3434" />
      <path
         d="m-425.55 394.5l-19.11 31.12 39.9-11.94 3.56 8.19-47.32 13.06s-7.47 2.96-9.66 1.46c-2.71-1.86 1.21-9.2 1.21-9.2l22.23-37.17 9.19 4.48z"
         style="fill-rule:evenodd;fill:#272e56"
         sodipodi:nodetypes="cccccsccc"
         id="path3438" />
      <path
         inkscape:transform-center-x="-8.5003532"
         inkscape:transform-center-y="5.9395819"
         sodipodi:nodetypes="cccccccccccz"
         d="m-403.76 403.25c2.28-3.2 4.46-3.52 7.19-3.84 1.22-0.23 3.91 0.01 2.86 2.6-0.62 1.14-3.34 1.55-1.52 2.12 2.15 1.12 7.55-2.34 9.74-1.4 1.36 0.5 0.93 6.22-1.25 8.9-0.32 1.66-0.56 4.3-1.94 5.59-1.42 1.46-2.65 1.88-4.02 3.17-2.64 1.74-5.71 1.53-8.42 1.88-2.52-0.13-4.97-1.46-6.69-3.81-1.13-2.28 0.07-5.97 0.61-8.55l1.78-4.08"
         style="fill-rule:evenodd;fill:#272e56"
         id="path3440" />
      <path
         d="m-434.11 368.91c-34.38 46.61 47.11 23.57 54.53 21.19l-1.43-1.43"
         style="stroke-linejoin:round;stroke:#000000;stroke-linecap:round;stroke-width:3;fill:none"
         sodipodi:nodetypes="ccc"
         id="path3442" />
      <g
         transform="matrix(0.09976529,0,0,0.07553825,-361.30062,358.36568)"
         id="g3847">
        <g
           transform="translate(8.9098,-1.2744)"
           id="g3798">
          <circle
             r="68.810356"
             cy="320.93362"
             cx="286.70981"
             transform="translate(-109.59,12.743)"
             style="fill:#000000;fill-rule:evenodd"
             id="path3755" />
          <circle
             r="68.810356"
             cy="320.93362"
             cx="286.70981"
             transform="translate(33.131,12.743)"
             style="fill:#000000;fill-rule:evenodd"
             id="path3757" />
          <rect
             x="229.37"
             y="348.97"
             width="34.404999"
             height="58.616001"
             style="fill:#000000;fill-rule:evenodd"
             id="rect3759" />
          <rect
             x="-112.66"
             y="354.92001"
             width="34.404999"
             height="94.295998"
             transform="matrix(0.70619,-0.70802,0.70802,0.70619,0,0)"
             inkscape:transform-center-y="19.113987"
             inkscape:transform-center-x="68.810353"
             style="fill:#000000;fill-rule:evenodd"
             id="rect3761" />
          <rect
             x="-462.70999"
             y="3.9554999"
             width="34.404999"
             height="94.295998"
             transform="matrix(-0.70619,-0.70802,-0.70802,0.70619,0,0)"
             inkscape:transform-center-y="19.11398"
             inkscape:transform-center-x="-68.810346"
             style="fill:#000000;fill-rule:evenodd"
             id="rect3763" />
          <rect
             x="115.96"
             y="410.13"
             width="265.04999"
             height="164.38"
             ry="20.388"
             style="fill:#000000;fill-rule:evenodd"
             id="rect3765" />
          <rect
             x="384.82999"
             y="450.91"
             width="70.084999"
             height="82.827003"
             style="fill:#000000;fill-rule:evenodd"
             id="rect3767" />
          <rect
             x="458.73999"
             y="434.98001"
             width="28.034"
             height="114.68"
             style="fill:#000000;fill-rule:evenodd"
             id="rect3772" />
          <rect
             x="489.32001"
             y="416.5"
             width="28.034"
             height="151.64"
             style="fill:#000000;fill-rule:evenodd"
             id="rect3774" />
          <rect
             x="159.28"
             y="577.06"
             width="180.95"
             height="31.857"
             style="fill:#000000;fill-rule:evenodd"
             id="rect3776" />
        </g>
        <path
           inkscape:connector-curvature="0"
           style="opacity:0.7;fill:#000000;fill-rule:evenodd;filter:url(#filter3843)"
           d="m 186.04,263.6 c -38.003,0 -68.812,30.81 -68.812,68.812 0,38.003 30.81,68.812 68.812,68.812 18.499,0 35.291,-7.3107 47.656,-19.188 l 4.5938,4.5938 v 19.688 h 34.406 v -17.156 l 7.7812,-7.75 c 12.423,12.242 29.462,19.812 48.281,19.812 38.003,0 68.812,-30.81 68.812,-68.812 0,-38.003 -30.81,-68.812 -68.812,-68.812 -38.003,0 -68.812,30.81 -68.812,68.812 0,5.2602 0.60091,10.359 1.7188,15.281 h -8.5312 c 1.1178,-4.9218 1.7188,-10.021 1.7188,-15.281 0,-38.003 -30.81,-68.812 -68.812,-68.812 z m -40.781,145.25 c -11.295,0 -20.375,9.1112 -20.375,20.406 v 123.59 c 0,11.295 9.0799,20.375 20.375,20.375 h 224.28 c 11.295,0 20.375,-9.0799 20.375,-20.375 v -123.59 c 0,-11.295 -9.0799,-20.406 -20.375,-20.406 z m 352.97,6.375 v 151.62 h 28.031 v -151.62 z m -30.562,18.469 v 114.69 h 28.031 v -114.69 z m -73.906,15.938 v 82.844 h 70.062 v -82.844 z m -225.56,126.16 v 31.844 h 180.97 v -31.844 z"
           id="path3812" />
      </g>
    </g>
  </g>
  <metadata
     id="metadata32">
    <rdf:RDF>
      <cc:Work>
        <dc:format>image/svg+xml</dc:format>
        <dc:type
           rdf:resource="http://purl.org/dc/dcmitype/StillImage" />
        <cc:license
           rdf:resource="http://creativecommons.org/publicdomain/zero/1.0/" />
        <dc:publisher>
          <cc:Agent
             rdf:about="http://openclipart.org/">
            <dc:title>Openclipart</dc:title>
          </cc:Agent>
        </dc:publisher>
        <dc:title>Cartoon SCUBA diver</dc:title>
        <dc:date>2010-03-01T12:36:51</dc:date>
        <dc:description>Simple cartoon SCUBA diver</dc:description>
        <dc:source>https://openclipart.org/detail/29695/cartoon-scuba-diver-by-singlecell</dc:source>
        <dc:creator>
          <cc:Agent>
            <dc:title>singlecell</dc:title>
          </cc:Agent>
        </dc:creator>
        <dc:subject>
          <rdf:Bag>
            <rdf:li>SCUBA</rdf:li>
            <rdf:li>cartoon</rdf:li>
            <rdf:li>diver</rdf:li>
          </rdf:Bag>
        </dc:subject>
      </cc:Work>
      <cc:License
         rdf:about="http://creativecommons.org/publicdomain/zero/1.0/">
        <cc:permits
           rdf:resource="http://creativecommons.org/ns#Reproduction" />
        <cc:permits
           rdf:resource="http://creativecommons.org/ns#Distribution" />
        <cc:permits
           rdf:resource="http://creativecommons.org/ns#DerivativeWorks" />
      </cc:License>
    </rdf:RDF>
  </metadata>
</svg>
