<?xml version="1.0" encoding="UTF-8" standalone="no"?>
<!-- Created with Inkscape (http://www.inkscape.org/) -->

<svg
   xmlns:dc="http://purl.org/dc/elements/1.1/"
   xmlns:cc="http://creativecommons.org/ns#"
   xmlns:rdf="http://www.w3.org/1999/02/22-rdf-syntax-ns#"
   xmlns:svg="http://www.w3.org/2000/svg"
   xmlns="http://www.w3.org/2000/svg"
   xmlns:sodipodi="http://sodipodi.sourceforge.net/DTD/sodipodi-0.dtd"
   xmlns:inkscape="http://www.inkscape.org/namespaces/inkscape"
   width="500"
   height="500"
   viewBox="0 0 500.00001 500.00001"
   id="svg2"
   version="1.1"
   inkscape:version="0.91 r13725"
   sodipodi:docname="fish-orange.svg">
  <defs
     id="defs4" />
  <sodipodi:namedview
     id="base"
     pagecolor="#ffffff"
     bordercolor="#666666"
     borderopacity="1.0"
     inkscape:pageopacity="0.0"
     inkscape:pageshadow="2"
     inkscape:zoom="0.74612403"
     inkscape:cx="170.61039"
     inkscape:cy="356.31169"
     inkscape:document-units="px"
     inkscape:current-layer="layer1"
     showgrid="false"
     units="px"
     inkscape:window-width="1366"
     inkscape:window-height="705"
     inkscape:window-x="-8"
     inkscape:window-y="-8"
     inkscape:window-maximized="1" />
  <metadata
     id="metadata7">
    <rdf:RDF>
      <cc:Work
         rdf:about="">
        <dc:format>image/svg+xml</dc:format>
        <dc:type
           rdf:resource="http://purl.org/dc/dcmitype/StillImage" />
        <dc:title></dc:title>
      </cc:Work>
    </rdf:RDF>
  </metadata>
  <g
     inkscape:label="Layer 1"
     inkscape:groupmode="layer"
     id="layer1"
     transform="translate(0,-552.36216)">
    <path
       style="fill:#ff6600;fill-rule:evenodd;stroke:#000000;stroke-width:4.39720392;stroke-linecap:butt;stroke-linejoin:miter;stroke-miterlimit:4;stroke-dasharray:none;stroke-opacity:1"
       d="m 137.87412,933.24628 40.43333,61.74041 -38.18704,6.71091 z"
       id="path4148"
       inkscape:connector-curvature="0" />
    <path
       style="fill:#ff6600;fill-rule:evenodd;stroke:#000000;stroke-width:4.39720392;stroke-linecap:butt;stroke-linejoin:miter;stroke-miterlimit:4;stroke-dasharray:none;stroke-opacity:1"
       d="m 138.99726,934.58848 -44.925922,36.23893 30.325002,22.8171 z"
       id="path4150"
       inkscape:connector-curvature="0" />
    <path
       style="fill:#ff7f2a;fill-rule:evenodd;stroke:#000000;stroke-width:2.65664411;stroke-linecap:butt;stroke-linejoin:miter;stroke-miterlimit:4;stroke-dasharray:none;stroke-opacity:1"
       d="m 81.716703,703.73306 c 6.299182,-5.64573 -33.61014,-53.58144 -23.586106,-60.39823 31.826567,-21.64347 107.431313,-13.91746 158.363893,2.68437 59.04617,19.2465 124.97976,44.18974 159.48703,108.7168 7.27168,13.59771 -29.20185,33.55456 -29.20185,33.55456 L 170.44541,706.41742 Z"
       id="path4138"
       inkscape:connector-curvature="0"
       sodipodi:nodetypes="csasccc" />
    <path
       style="fill:#d45500;fill-rule:evenodd;stroke:#000000;stroke-width:8.42797375;stroke-linecap:butt;stroke-linejoin:miter;stroke-miterlimit:4;stroke-dasharray:none;stroke-opacity:1"
       d="m 15.450967,808.42331 c 0,0 48.555421,-132.34846 99.960193,-147.64011 103.8499,-30.89278 210.49532,72.45242 295.38795,150.32446 26.02077,23.86887 60.65001,92.61061 60.65001,92.61061 -15.07581,-54.64498 -25.42747,-150.83738 10.10833,-226.82887 0,0 -218.85621,292.57858 -340.31389,263.06781 C 119.95752,934.7853 92.038314,892.31956 65.007045,866.33962 46.587668,848.63662 15.450967,808.42331 15.450967,808.42331 Z"
       id="path4136"
       inkscape:connector-curvature="0"
       sodipodi:nodetypes="caaccssc" />
    <path
       style="fill:none;fill-rule:evenodd;stroke:#000000;stroke-width:4.20265722;stroke-linecap:butt;stroke-linejoin:round;stroke-miterlimit:4;stroke-dasharray:none;stroke-opacity:1"
       d="m 32.165707,831.06054 c 0,0 19.555383,21.64854 30.075543,19.30849 8.622791,-1.918 22.006496,-26.20437 22.006496,-26.20437"
       id="path4140"
       inkscape:connector-curvature="0"
       sodipodi:nodetypes="cac" />
    <path
       style="fill:none;fill-rule:evenodd;stroke:#000000;stroke-width:2.56503558;stroke-linecap:butt;stroke-linejoin:miter;stroke-miterlimit:4;stroke-dasharray:none;stroke-opacity:1"
       d="m 51.391708,730.57671 c 0,0 36.757479,20.83981 42.67963,41.60766 9.549182,33.48715 -20.216665,103.34807 -20.216665,103.34807"
       id="path4142"
       inkscape:connector-curvature="0"
       sodipodi:nodetypes="cac" />
    <path
       style="fill:none;fill-rule:evenodd;stroke:#000000;stroke-width:0.91608417px;stroke-linecap:butt;stroke-linejoin:miter;stroke-opacity:1"
       d="m 463.58708,722.5236 c 0,0 -7.86204,18.79056 -20.21667,21.47493 -12.35464,2.68436 -52.78797,44.29202 -57.28055,44.29202 0,0 31.92104,-10.86907 48.29536,-10.73745 7.63577,0.0614 22.46297,5.36873 22.46297,5.36873"
       id="path4144"
       inkscape:connector-curvature="0"
       sodipodi:nodetypes="cscac" />
    <path
       style="fill:none;fill-rule:evenodd;stroke:#000000;stroke-width:0.91608417px;stroke-linecap:butt;stroke-linejoin:miter;stroke-opacity:1"
       d="m 456.84819,836.60913 c 0,0 -10.94516,-24.63695 -20.21667,-32.21238 -13.79696,-11.27301 -48.29537,-16.1062 -48.29537,-16.1062 0,0 33.65231,22.78678 47.17222,38.92331 12.56495,14.99676 30.325,52.34513 30.325,52.34513"
       id="path4146"
       inkscape:connector-curvature="0"
       sodipodi:nodetypes="cacac" />
    <ellipse
       style="opacity:1;fill:#ff6600;fill-opacity:1;fill-rule:nonzero;stroke:#000000;stroke-width:3.68940854;stroke-linecap:round;stroke-linejoin:round;stroke-miterlimit:4;stroke-dasharray:none;stroke-dashoffset:0;stroke-opacity:1"
       id="path4152"
       cx="60.376892"
       cy="782.25079"
       rx="16.919554"
       ry="20.890272" />
    <ellipse
       style="opacity:1;fill:#280b0b;fill-opacity:1;fill-rule:nonzero;stroke:#000000;stroke-width:3.3719964;stroke-linecap:round;stroke-linejoin:round;stroke-miterlimit:4;stroke-dasharray:none;stroke-dashoffset:0;stroke-opacity:1"
       id="path4154"
       cx="54.778564"
       cy="782.25073"
       rx="5.8332534"
       ry="7.6419368" />
  </g>
</svg>
