<?xml version="1.0" encoding="UTF-8" standalone="no"?>
<svg
   xmlns:dc="http://purl.org/dc/elements/1.1/"
   xmlns:cc="http://creativecommons.org/ns#"
   xmlns:rdf="http://www.w3.org/1999/02/22-rdf-syntax-ns#"
   xmlns:svg="http://www.w3.org/2000/svg"
   xmlns="http://www.w3.org/2000/svg"
   xmlns:sodipodi="http://sodipodi.sourceforge.net/DTD/sodipodi-0.dtd"
   xmlns:inkscape="http://www.inkscape.org/namespaces/inkscape"
   id="svg3175"
   viewBox="0 0 263 100"
   version="1.1"
   sodipodi:docname="fish15.svg"
   inkscape:version="1.0 (1.0+r73+1)">
  <defs
     id="defs12" />
  <sodipodi:namedview
     inkscape:document-rotation="0"
     pagecolor="#ffffff"
     bordercolor="#666666"
     borderopacity="1"
     objecttolerance="10"
     gridtolerance="10"
     guidetolerance="10"
     inkscape:pageopacity="0"
     inkscape:pageshadow="2"
     inkscape:window-width="1920"
     inkscape:window-height="1027"
     id="namedview10"
     showgrid="false"
     inkscape:zoom="4.1711027"
     inkscape:cx="112.07471"
     inkscape:cy="50"
     inkscape:window-x="0"
     inkscape:window-y="0"
     inkscape:window-maximized="1"
     inkscape:current-layer="svg3175" />
  <path
     id="path3605"
     fill="#e6e603"
     d="m 82.148578,99.18571 c 4.233,-0.35044 5.1094,-2.0321 4.5689,-8.7666 -0.31491,-3.9233 -0.31491,-3.9233 6.6851,-4.7301 3.85,-0.44375 14.195002,-2.3449 22.989002,-4.2248 15.989,-3.418 15.989,-3.418 19.827,-0.87828 12.854,8.5063 31.812,5.6298 44.037,-6.6818 12.482,-12.57 41.366,-10.265 71.686,5.7212 10.329,5.4458 10.461,5.4017 10.461,-3.4839 0,-8.8303 -4.3444,-18.022 -11.602,-24.547 -5.0406,-4.5319 -5.0406,-4.5319 -0.60844,-9.3152 8.2135,-8.8641 12.71,-18.672 12.71,-27.721 0,-5.581 0.18018,-5.5798 -7.567,-0.0516 -28.625,20.426 -58.396,24.272 -100.73,13.012 -32.517,-8.6491 -32.235,-8.5108 -31.215,-15.312 0.93728,-6.2502 -0.25843,-7.2106 -8.9771,-7.2106 -3.9826,0 -9.4986,-0.42814 -12.258,-0.95142 -2.759202,-0.52328 -8.558202,-1.2132 -12.886002,-1.5332 -11.014,-0.81422 -16.513,-1.3652 -19.064,-1.9102 -3.0804,-0.65818 -9.5883,4.3142 -12.784,9.7678 -3.5012,5.9743 -4.0076,6.3167 -15.01,10.148 -23.304,8.1149 -47.6590005,25.18 -41.43000046,29.029 0.59455996,0.36746 0.83463996,1.6498 0.53350996,2.8496 -0.77456996,3.0862 2.285,7.5946 7.4694,11.007 2.4288005,1.5985 5.5724005,3.6895 6.9857005,4.6466 6.0707,4.1111 26.186,13.116 32.129,14.384 1.4844,0.31656 5.1693,2.7103 8.1887,5.3193 3.0194,2.6091 8.1049,5.7851 11.301,7.0579 3.1962,1.2728 6.9363,2.8478 8.3113,3.5 1.375,0.65223 4.1857,1.0463 6.246,0.87575 z" />
  <path
     id="path3603"
     fill="#5f5e14"
     d="m 82.148578,99.18571 c 4.233,-0.35044 5.1094,-2.0321 4.5689,-8.7666 -0.31491,-3.9233 -0.31491,-3.9233 6.6851,-4.7301 3.85,-0.44375 14.195002,-2.3449 22.989002,-4.2248 15.989,-3.418 15.989,-3.418 19.827,-0.87828 12.854,8.5063 31.812,5.6298 44.037,-6.6818 12.482,-12.57 41.366,-10.265 71.686,5.7212 10.329,5.4458 10.461,5.4017 10.461,-3.4839 0,-8.8303 -4.3444,-18.022 -11.602,-24.547 -5.0406,-4.5319 -5.0406,-4.5319 -0.60844,-9.3152 8.2135,-8.8641 12.71,-18.672 12.71,-27.721 0,-5.581 0.18018,-5.5798 -7.567,-0.0516 -28.625,20.426 -58.396,24.272 -100.73,13.012 -32.517,-8.6491 -32.235,-8.5108 -31.215,-15.312 0.93728,-6.2502 -0.25843,-7.2106 -8.9771,-7.2106 -3.9826,0 -9.4986,-0.42814 -12.258,-0.95142 -2.759202,-0.52328 -8.558202,-1.2132 -12.886002,-1.5332 -11.014,-0.81422 -16.513,-1.3652 -19.064,-1.9102 -3.0804,-0.65818 -9.5883,4.3142 -12.784,9.7678 -3.5012,5.9743 -4.0076,6.3167 -15.01,10.148 -23.304,8.1149 -47.6590005,25.18 -41.43000046,29.029 0.59455996,0.36746 0.83463996,1.6498 0.53350996,2.8496 -0.77456996,3.0862 2.285,7.5946 7.4694,11.007 2.4288005,1.5985 5.5724005,3.6895 6.9857005,4.6466 6.0707,4.1111 26.186,13.116 32.129,14.384 1.4844,0.31656 5.1693,2.7103 8.1887,5.3193 3.0194,2.6091 8.1049,5.7851 11.301,7.0579 3.1962,1.2728 6.9363,2.8478 8.3113,3.5 1.375,0.65223 4.1857,1.0463 6.246,0.87575 z m -25.837,-17.501 c -8.7774,-1.9808 -8.7002,-1.8323 -4.9097,-9.4522 5.6456,-11.349 6.8867,-22.592 3.0701,-27.811 -2.1667,-2.9632 -2.7225,-1.2429 -1.4206,4.3972 4.3806,18.978 -6.7396,31.867 -21.472,24.888 -21.438,-10.155 -36.7090005,-23.596 -22.2840005,-19.613 6.4392005,1.778 13.4310005,2.6291 14.7750005,1.7986 2.0802,-1.2856 0.56235,-1.9075 -9.8082,-4.0183 -14.30100046,-2.9107 -14.82700046,-4.586 -3.8464,-12.238 40.203,-28.014 70.142,-30.029 144.990002,-9.7572 25.743,6.9726 47.267,8.2639 64.357,3.861 9.357,-2.4107 9.357,-2.4107 11.083,1.6725 5.1881,12.274 5.4448,13.715 3.6904,20.71 -0.89669,3.5754 -1.6303,7.4987 -1.6303,8.7183 0,3.1365 -1.7137,3.4443 -9.0578,1.6272 -19.069,-4.718 -45.925,-2.9309 -76.942,5.1201 -44.739,11.613 -50.019002,12.519 -69.500002,11.927 -8.25,-0.25077 -17.741,-1.0746 -21.091,-1.8306 z m -18.075,-40.355 c 1.5132,-1.5132 0.60076,-5.2195 -1.4448,-5.8687 -2.813,-0.8928 -5.3167,1.6109 -4.4239,4.4239 0.64925,2.0456 4.3555,2.9581 5.8687,1.4448 z m 96.667002,-1.8654 c 0,-3.9554 -2.9037,-8.4679 -5.449,-8.4679 -1.4031,0 -2.551,-0.39825 -2.551,-0.88499 0,-2.3504 -5.4389,-4.2239 -13.285,-4.5763 -4.5181,-0.2029 -9.6828,-0.90309 -11.477,-1.556 -1.7944,-0.6529 -3.877002,-0.95126 -4.628202,-0.66304 -0.7511,0.28822 -1.8514,0.0383 -2.4451,-0.55543 -0.77263,-0.77263 -1.5179,-0.71562 -2.6219,0.20059 -1.2532,1.0401 -1.8315,1.0401 -3.0848,0 -1.1991,-0.99517 -1.8093,-1.0132 -2.7416,-0.0808 -0.93235,0.93234 -0.86913,1.4033 0.28402,2.116 1.1597,0.71674 1.2196,1.1804 0.27442,2.1256 -1.2918,1.2918 -1.8092,0.53517 -2.4796,-3.6256 -0.44094,-2.7367 -3.2192,-2.5332 -3.6163,0.26483 -0.17683,1.2457 -0.71967,2.0188 -1.2063,1.718 -0.48666,-0.30078 -0.64881,-1.1619 -0.36033,-1.9137 0.85233,-2.2212 -1.7714,-3.0715 -3.2476,-1.0525 -1.2544,1.7156 -1.4419,1.723 -3.2049,0.12754 -1.6441,-1.4879 -2.0224,-1.514 -3.1012,-0.21416 -0.92957,1.1201 -1.6489,1.218 -2.9552,0.40222 -3.7116,-2.318 -8.7466,1.8373 -5.954,4.9138 5.592,6.1604 6.0224,6.4827 7.1511,5.354 1.7187,-1.7186 2.666,-1.3196 3.7718,1.589 1.0896,2.8658 3.3094,1.4374 6.4996,-4.1825 0.5893,-1.0381 1.6362,-2.0757 2.3264,-2.3058 0.96988,-0.3233 0.95365,0.0746 -0.0714,1.7514 -1.1545,1.8885 -1.0826,2.3506 0.55485,3.565 1.7588,1.3045 1.7008,1.3819 -0.89078,1.1891 -3.6718,-0.27318 -4.2209,1.6399 -0.90447,3.151 1.8208,0.82963 3.0213,0.88358 3.8761,0.17422 0.86538,-0.71821 2.1846,-0.55557 4.3809,0.54011 1.8234,0.90962 4.0353,1.2844 5.269,0.89289 1.1695,-0.37118 3.203,-0.0987 4.5188,0.60554 2.0669,1.1062 2.573102,1.0334 3.719702,-0.53466 1.0483,-1.4337 1.7287,-1.5904 3.2377,-0.7459 1.4615,0.81788 2.322,0.69681 3.6611,-0.51512 1.5995,-1.4475 1.9109,-1.4393 3.6072,0.0959 1.6703,1.5116 1.9855,1.5249 3.1412,0.13241 0.76332,-0.91974 2.0583,-1.3022 3.1914,-0.94261 1.0487,0.33286 2.5202,0.0962 3.2698,-0.52598 0.93747,-0.77803 1.5653,-0.80383 2.011,-0.0826 0.35638,0.57671 2.2106,1.0486 4.1204,1.0486 2.1641,0 3.6892,0.56517 4.048,1.5 0.75409,1.9651 3.3616,1.9402 3.3616,-0.0321 z m 20.957,38.831 c -2.2312,-2.5413 -2.8394,-3.8381 -1.9403,-4.1378 1.2108,-0.40359 6.895,5.3894 6.956,7.089 0.0615,1.7149 -1.9663,0.52173 -5.0157,-2.9513 z m -96.957002,-64.796 c 0,-0.93009 7.2286,-8.5029 8.1164,-8.5029 1.5608,0 0.95612,1.4564 -2.1892,5.2722 -2.5972,3.1509 -5.9272,4.9659 -5.9272,3.2307 z" />
  <metadata
     id="metadata7">
    <rdf:RDF>
      <cc:Work>
        <dc:format>image/svg+xml</dc:format>
        <dc:type
           rdf:resource="http://purl.org/dc/dcmitype/StillImage" />
        <cc:license
           rdf:resource="http://creativecommons.org/publicdomain/zero/1.0/" />
        <dc:publisher>
          <cc:Agent
             rdf:about="http://openclipart.org/">
            <dc:title>Openclipart</dc:title>
          </cc:Agent>
        </dc:publisher>
        <dc:title></dc:title>
      </cc:Work>
      <cc:License
         rdf:about="http://creativecommons.org/publicdomain/zero/1.0/">
        <cc:permits
           rdf:resource="http://creativecommons.org/ns#Reproduction" />
        <cc:permits
           rdf:resource="http://creativecommons.org/ns#Distribution" />
        <cc:permits
           rdf:resource="http://creativecommons.org/ns#DerivativeWorks" />
      </cc:License>
    </rdf:RDF>
  </metadata>
</svg>
