<?xml version="1.0" encoding="UTF-8" standalone="no"?>
<svg
   xmlns:dc="http://purl.org/dc/elements/1.1/"
   xmlns:cc="http://creativecommons.org/ns#"
   xmlns:rdf="http://www.w3.org/1999/02/22-rdf-syntax-ns#"
   xmlns:svg="http://www.w3.org/2000/svg"
   xmlns="http://www.w3.org/2000/svg"
   xmlns:sodipodi="http://sodipodi.sourceforge.net/DTD/sodipodi-0.dtd"
   xmlns:inkscape="http://www.inkscape.org/namespaces/inkscape"
   inkscape:version="1.0 (1.0+r73+1)"
   version="1.1"
   viewBox="0 0 303.05 226.11"
   sodipodi:docname="weird_octopus.svg"
   id="svg7324">
  <defs
     id="defs144" />
  <sodipodi:namedview
     inkscape:document-rotation="0"
     fit-margin-top="0"
     inkscape:window-height="1027"
     gridtolerance="10"
     pagecolor="#ffffff"
     inkscape:pageshadow="2"
     inkscape:pageopacity="0"
     inkscape:window-width="1920"
     fit-margin-bottom="0"
     inkscape:window-y="0"
     objecttolerance="10"
     guidetolerance="10"
     inkscape:window-x="0"
     bordercolor="#666666"
     fit-margin-right="0"
     showgrid="false"
     inkscape:window-maximized="1"
     inkscape:cy="59.557666"
     inkscape:cx="122.33334"
     inkscape:current-layer="svg7324"
     borderopacity="1"
     inkscape:zoom="1.2915711"
     fit-margin-left="0"
     id="namedview143" />
  <title
     id="title3118">fukushima mutant</title>
  <path
     d="m 109.57593,136.17 c -6.6826,-12.406 -15.453999,-23.261 -24.224999,-26.75 -8.771,-3.4891 -24.225,2.3261 -28.401,8.9167 -4.1767,6.5905 -5.4296,22.873 -18.795,25.975 -13.365,3.1015 -25.06,-1.9385 -27.566,0.7754 -2.5060004,2.7137 17.542,13.956 27.984,13.569 10.442,-0.38764 26.73,-6.9783 30.907,-13.181 4.1766,-6.2029 15.454,-9.692 19.213,-0.77528 3.759,8.9166 29.236999,5.8151 20.882999,-8.5291 z"
     inkscape:connector-curvature="0"
     style="color:#000000;fill:#aa00d4;stroke:#000000;stroke-width:1.1179;stroke-linecap:round"
     id="path1727" />
  <path
     d="m 136.44593,156.64 c -15.966,-7.1067 -19.426,-7.2584 -30.658,-17.574 -7.702999,-7.0738 -28.716999,-19.481 -44.549999,-8.959 -14.915,9.9116 -11.7,23.692 -29.7,41.005 -16.583,15.95 -33.5330004,8.6146 -30.65800039,12.405 2.87419999,3.7903 34.01200039,4.1349 45.02900039,-4.4796 11.018,-8.6144 18.683,-21.364 32.575,-19.986 13.892,1.3783 31.253999,13.852 44.666999,10.062 13.413,-3.7904 19.524,-7.9947 13.297,-12.474 z"
     inkscape:connector-curvature="0"
     style="color:#000000;fill:#aa00d4;stroke:#000000;stroke-width:1.1179;stroke-linecap:round"
     id="path1725" />
  <path
     d="m 227.20893,99.44 c 3.386,-18.952 9.423,-15.914 6.126,-30.748 -2.255,-10.151 -0.931,-25.274 -10.797,-35.187 -21.952,-18.033 -7.824,-18.039 -33.282,-23.646 -16.178,-3.5638 -29.485,-13.671 -44.084,-7.1652 -9.5612,4.2605 -16.51,1.0587 -27.52,4.3387 -11.01,3.28 -13.6,9.3722 -23.482999,13.568 -13.045,5.538 -4.636,12.926 -8.7934,21.215 -3.5373,7.0528 15.779999,-6.6394 5.896,0.42112 -9.8846,7.0603 -6.4658,17.49 -7.4072,26.904 -0.94128,9.4137 -12.362,12.634 -9.0669,19.224 3.2947,6.5898 6.1188,11.297 10.355,16.945 4.2408,5.6448 7.4608,7.3484 8.0018,12.238 -1.493,13.641 8.428999,18.279 12.708999,16.474 4.7901,-2.0206 14.444,-4.108 10.678,9.542 -3.7656,13.65 11.315,10.419 7.0856,12.689 -11.656,6.2571 23.877,19.04 24.02,6.9682 0.13416,-11.335 13.322,10.537 27.914,3.4767 14.59,-7.06 29.525,-11.43 31.878,-19.43 2.354,-8 11.581,-31.31 12.051,-40.73 0.471,-9.412 7.714,-7.1 7.714,-7.1 z"
     inkscape:connector-curvature="0"
     style="color:#000000;fill:#aa00d4;stroke:#000000;stroke-width:1.1179;stroke-linecap:round"
     id="path1729" />
  <path
     d="m 226.83393,84.599 c 3.7655,-10.826 0,-11.297 0.94141,-22.122 0.94141,-10.826 -1.412,-16.945 -8.0016,-20.71 -6.5898,-3.7655 -3.3832,-8.8548 -8.09,-13.091 -4.7069,-4.2361 -7.922,-2.5131 -13.1,-9.5735 -5.1776,-7.0603 -18.819,-5.5767 -25.409,-8.4008 -6.5896,-2.8242 -20.039,-1.5824 -25.688,-0.64099 -34.179,-0.47524 -47.760999,9.6155 -61.797999,20.869 -4.7068,3.2948 -4.6823,11.184 -2.8867,17.898 -2.5787,31.824 -11.598,29.948 2.3535,57.895 2.3821,5.1488 6.9933,6.1859 8.0018,10.826 4.2361,1.412 3.2279,8.7008 4.1693,12.466 0.94129,3.7655 1.479,4.9492 10.421999,4.9492 8.943,0 10.826,1.4121 13.179,6.119 2.3534,4.7068 5.1776,12.238 26.359,11.296 21.181,-0.94129 57.424,-12.238 59.307,-17.886 1.8828,-5.6484 9.5957,-21.809 10.537,-24.633 0.94141,-2.8241 4.4292,-7.6048 6.3119,-10.9 1.8828,-3.2948 3.3906,-14.361 3.3906,-14.361 z"
     inkscape:connector-curvature="0"
     style="color:#000000;fill:#aa00d4;stroke:#000000;stroke-width:1.1179;stroke-linecap:round"
     id="path1731-5" />
  <path
     d="m 218.83193,92.6 c 3.765,-10.825 -0.471,-11.296 0.471,-22.122 0.941,-10.826 2.353,-16.945 -4.237,-20.71 -6.589,-3.766 -11.009,-7.463 -10.834,-13.793 0.477,-17.196 -12.706,-8.544 -17.886,-15.604 -5.1776,-7.0603 -15.524,2.097 -22.114,-0.72708 -6.5898,-2.8242 -8.4726,-6.5896 -14.121,-5.6483 -5.6484,0.94141 -7.5605,1.1775 -10.826,1.8828 -3.2655,0.7053 -12.758,4.3238 -18.071,1.7606 -7.7757,-3.7512 -11.452,6.6373 -15.335,4.7735 -3.8824,-1.8638 -19.402999,0.15745 -19.665999,13.079 -0.11704,5.7444 -4.8734,6.5409 -3.4112,13.335 -0.22189,34.466 -12.963,27.201 2.3535,57.895 2.3768,5.1662 6.7076,7.9836 8.0018,10.826 4.2361,1.412 1.2309,7.3694 2.1723,11.135 0.94129,3.7655 3.4759,6.2805 12.418999,6.2805 8.943,0 10.826,1.4121 13.179,6.119 2.3534,4.7068 5.1776,12.238 26.359,11.296 21.181,-0.94129 57.424,-12.238 59.307,-17.886 1.8828,-5.6484 8.0213,-22.189 8.9627,-25.014 0.94141,-2.8241 -1.4316,-8.8762 0.45107,-12.171 1.8828,-3.2948 2.8242,-4.7069 2.8242,-4.7069 z"
     inkscape:connector-curvature="0"
     style="color:#000000;fill:#aa00d4;stroke:#000000;stroke-width:1.1179;stroke-linecap:round"
     id="path1731" />
  <path
     d="m 215.13493,72.485 c 0.942,-10.826 -10.231,-12.04 -16.819,-15.806 -6.5898,-3.7655 -11.544,-21.354 -16.251,-25.591 -4.7069,-4.2362 -15.582,2.8737 -20.76,-4.1866 -5.1776,-7.0605 -11.445,-2.2792 -18.035,-5.1033 -6.5898,-2.8242 -9.0919,3.9142 -14.74,4.8556 -5.6482,0.94129 -9.0422,-0.07426 -9.0422,-0.07426 0,0 -14.91,-5.145 -20.086999,-1.8502 -5.1776,3.2949 -4.9506,0.45774 -9.6575,3.7526 -4.7069,3.2948 -3.8055,12.527 -9.0639,17.071 -5.3976,4.6641 -0.6488,20.591 -10.61,35.751 -3.8855,5.9137 4.8848,19.677 7.2383,24.854 2.3534,5.1776 4.7509,7.5838 8.9871,8.9959 4.2362,1.412 -0.10068,6.921 0.84111,10.687 0.94128,3.7655 4.2478,10.02 13.122999,11.119 7.1072,10.329 22.664,17.944 41.995,15.419 21.181,-0.94129 52.374,-19.134 54.256,-24.782 7.1615,-3.1988 14.595,-3.9714 23.401,-18.463 7.4095,-12.192 7.0021,-18.853 1.3433,-21.969 -5.6588,-3.1158 -6.3939,-9.5451 -6.1183,-14.68 z"
     inkscape:connector-curvature="0"
     style="color:#000000;fill:#aa00d4;stroke:#000000;stroke-width:1.1179;stroke-linecap:round"
     id="path1731-9" />
  <path
     d="m 212.77093,72.216 c 0.907,-10.431 -9.855,-11.6 -16.205,-15.228 -6.3489,-3.6278 -11.122,-20.574 -15.657,-24.656 -4.535,-4.0814 -15.013,2.7687 -20.001,-4.0336 -4.9884,-6.8025 -11.027,-2.1958 -17.376,-4.9167 -6.3489,-2.721 -8.7596,3.7711 -14.201,4.6781 -5.442,0.90693 -8.7118,-0.07174 -8.7118,-0.07174 0,0 -12.36,-3.5746 -17.707,-1.796 -5.347699,1.7787 -6.064899,0.61859 -10.599999,3.793 -4.5349,3.1745 -7.6286,14.269 -11.886,19.436 8.3466,-5.6706 25.169999,-18.744 37.594999,-17.861 17.82,1.268 70.46,-1.979 65.3,17.067 -3.84,14.164 39.253,20.228 34.046,58.894 14.146,-15.249 4.135,-17.153 1.561,-19.028 -6.098,-4.774 -5.885,-11.329 -6.162,-16.276 z"
     inkscape:connector-curvature="0"
     style="color:#000000;fill:#d94dfc"
     id="path1731-9-1" />
  <path
     d="m 175.09593,86.932 c 1.2386,0.01636 2.4802,0.41155 3.9476,1.4043 0,0 -2.3135,2.107 -12.308,4.7976 -10.393,2.7978 -34.589,9.9542 -45.424,7.6506 -11.719,-2.4917 -26.805999,-1.3157 -35.091999,-3.4515 -4.8427,-1.2481 -8.6521,-2.7125 -10.983,-4.2457 2.1537,3.2908 5.3246,8.1026 6.4162,9.558 1.7057,2.2744 5.6871,9.38 5.9714,11.086 0.28431,1.7059 -3.4109,-0.56724 -5.1167,-2.273 -1.7058,-1.7057 -9.9509,-16.774 -11.088,-18.764 -1.1372,-1.9901 -0.85394,-3.6966 1.7047,-2.8436 0,0 0.0705,0.10824 0.0743,0.11453 3.2292,0.89434 15.243,0.3748 31.631999,4.8767 17.494,4.8055 44.275,-2.3178 55.324,-3.9196 8.1142,-1.1768 11.519,-4.0342 14.943,-3.9898 z"
     inkscape:connector-curvature="0"
     style="color:#000000;fill:#dc50ff"
     id="path2303" />
  <path
     d="m 174.90593,87.292 c 3.9801,-0.28431 5.686,0.85294 7.676,3.9802 1.99,3.1272 2.5587,11.372 1.4214,13.362 -1.1371,1.9901 -6.8231,5.9702 -9.0975,9.0975 -2.2744,3.1273 -17.058,10.803 -19.332,12.225 -2.2744,1.4214 -8.8132,4.5487 -11.94,5.9703 -3.1273,1.4214 -21.322,1.9901 -25.871,1.7058 -4.5487,-0.28431 -14.108,1.9782 -17.626,1.4214 -4.172799,-0.66025 -11.495999,-4.14 -9.666099,-4.5487 1.3873,-0.30987 22.743999,0.85293 25.870999,0.28431 3.1273,-0.56863 21.322,-1.4214 24.45,-1.7058 3.1273,-0.28431 5.686,-1.7059 7.676,-3.6959 1.9901,-1.9901 17.626,-10.803 21.607,-11.94 3.9801,-1.1371 6.8231,-3.4115 10.235,-6.2545 3.4115,-2.843 3.241,-11.94 0.5685,-15.352 -2.352,-3.0027 -3.6958,-3.6958 -3.6958,-3.6958 z"
     inkscape:connector-curvature="0"
     style="color:#000000;fill:#dc50ff"
     id="path2305" />
  <path
     d="m 75.225931,93.982 c 10.355,4.6976 5.5594,3.3585 15.718,4.7373 11.748999,1.5946 24.243999,2.895 33.418999,3.0478 9.4242,0.15694 29.653,-3.0478 37.185,-6.3426 7.5309,-3.2949 15.132,-8.0484 18.427,-2.8708 3.2949,5.1776 2.7543,13.697 -6.1889,17.462 -8.943,3.7656 -24.947,13.65 -31.065,15.533 -6.119,1.8828 -26.359,1.4121 -32.478,2.8241 -6.1189,1.4121 -14.316999,0.15996 -15.257999,-2.1934"
     inkscape:connector-curvature="0"
     style="color:#000000;fill:#550044;stroke:#000000;stroke-width:1.1179;stroke-linecap:round"
     id="path1797-7" />
  <path
     d="m 233.41493,93.49 c 15.414,-2.481 29.472,15.19 37.946,28.7 7.007,10.93 20.098,14.15 26.713,16.02 6.6149,1.8721 7.3941,6.1636 -8.995,5.027 -12.226,-0.84803 -27.272,-6.3912 -33.379,-15.739 -8.3119,-12.724 -13.818,0.42087 -15.631,4.1045 -1.8136,3.6835 -2.4531,5.2787 -8.5463,9.8227 -23.611,17.608 -23.168,-1.113 -20.487,-12.278 0.747,-16.38 4.354,-35.376 22.379,-35.66 z"
     inkscape:connector-curvature="0"
     style="color:#000000;fill:#aa00d4;stroke:#000000;stroke-width:1.1179;stroke-linecap:round"
     id="path1717" />
  <path
     d="m 177.42593,90.648 c -0.94129,3.7655 -5.5248,12.308 -5.5248,12.308 0,0 -7.531,-4.7069 -7.0604,-6.1191 0.47071,-1.412 -1.4121,11.297 -1.4121,11.297 l -8.9198,-8.4258 -0.0239,11.25 -8.0018,-9.4137 -3.2948,14.591 -5.6484,-12.238 -2.8241,12.238 -6.1191,-11.921 -4.7068,13.804 -4.7069,-14.121 -5.6483,13.179 c -1.412,-5.1613 -2.8241,-7.5302 -4.2361,-15.533 l -4.7069,14.591 -6.466199,-15.092 -4.3597,14.151 -4.7069,-14.121 -2.8241,8.943 -4.2362,-10.826 -0.47071,5.1776 -4.8839,-9.2671 8.6494,2.2067 8.0018,1.4121 14.590999,0.84903 18.357,2.9165 c 0,0 15.062,-2.3534 16.945,-2.8241 1.8828,-0.47071 12.608,-2.6308 12.608,-2.6308 7.4058,-1.5591 14.069,-6.6774 21.629,-6.3824 z"
     inkscape:connector-curvature="0"
     style="color:#000000;fill:#ffffff;stroke:#000000;stroke-width:1.1179;stroke-linecap:round"
     id="path1799" />
  <path
     d="m 192.52593,138.55 c 2.9321,-7.1579 5.9712,-31.066 19.298,-31.066 11.767,0 23.534,8.4725 27.3,17.886 3.7655,9.4139 16.474,32.007 28.712,34.831 12.238,2.8241 15.315,-1.9184 19.552,1.847 4.2362,3.7655 -5.2685,4.7786 -13.741,7.132 -19.036,4.253 -34.155,-8.1806 -42.524,-16.039 -13.447,-12.773 -10.551,5.2568 -18.828,6.1189 -20.713,2.7584 -22.701,-13.553 -19.769,-20.71 z"
     inkscape:connector-curvature="0"
     style="color:#000000;fill:#aa00d4;stroke:#000000;stroke-width:1.1179;stroke-linecap:round"
     id="path1719" />
  <path
     d="m 122.16593,58.321 a -13.081,13.409 0 1 0 26.162,0 -13.081,13.409 0 1 0 -26.162,0 z"
     inkscape:connector-curvature="0"
     style="color:#000000;fill:#ffffff;stroke:#000000;stroke-width:1.1179;stroke-linecap:round"
     id="path1769" />
  <path
     d="m 101.11593,71.723 a -10.294,11.657 0 0 0 20.587,0 -10.294,11.657 0 1 0 -20.587,0 z"
     inkscape:connector-curvature="0"
     style="color:#000000;fill:#ffffff;stroke:#000000;stroke-width:1.1179;stroke-linecap:round"
     id="path1771" />
  <path
     d="m 83.895931,59.489 a -8.6101,11.255 0 1 0 17.219999,0 -8.6101,11.255 0 1 0 -17.219999,0 z"
     inkscape:connector-curvature="0"
     style="color:#000000;fill:#ffffff;stroke:#000000;stroke-width:1.1179;stroke-linecap:round"
     id="path1773" />
  <path
     d="m 147.46593,72.625 a -9.3416,10.071 0 0 0 18.683,0 -9.3416,10.071 0 1 0 -18.683,0 z"
     inkscape:connector-curvature="0"
     style="color:#000000;fill:#ffffff;stroke:#000000;stroke-width:1.3957;stroke-linecap:round"
     id="path1777" />
  <path
     d="m 74.375931,69.654 a -4.81435,7.1816746 0 0 0 9.6287,0 -4.81435,7.1816746 0 1 0 -9.6287,0 z"
     inkscape:connector-curvature="0"
     style="color:#000000;fill:#ffffff;stroke:#000000;stroke-width:1.1179;stroke-linecap:round"
     id="path1777-6" />
  <path
     d="m 75.075931,93.982 c 10.514,4.3737 5.2875,3.9378 15.872,4.7373 10.131999,0.76521 24.004999,2.5771 33.418999,3.0478 9.4138,0.4707 29.653,-3.0478 37.185,-6.3426 7.5309,-3.2949 15.132,-8.0484 18.427,-2.8708 3.2949,5.1776 2.7543,13.697 -6.1889,17.462 -8.943,3.7656 -24.947,13.65 -31.065,15.533 -6.119,1.8828 -26.359,1.4121 -32.478,2.8241 -6.1189,1.4121 -21.793999,1.3032 -22.735999,-1.0502"
     inkscape:connector-curvature="0"
     style="color:#000000;fill:none;stroke:#000000;stroke-width:1.1179;stroke-linecap:round"
     id="path1797" />
  <path
     d="m 95.885931,118.05 -2.6882,-3.0173 0.24064,4.8493 -2.8781,-2.263 0.12083,6.789 -2.6198,-6.4657 0.63231,9.5907 z"
     inkscape:connector-curvature="0"
     style="color:#000000;fill:#ffffff;stroke:#000000;stroke-width:1.0018"
     id="path2329" />
  <path
     d="m 173.78593,109.55 -5.1775,-4.2362 -2.8241,6.5896 -6.0828,-1.6286 -3.9252,8.2718 -5.5248,-4.7604 -4.2362,9.8845 -6.1189,-4.7069 -3.7655,7.0603 -4.7069,-8.0016 -4.7069,8.943 -6.5896,-8.4723 -5.6484,8.0016 -5.1775,-8.0016 -4.2362,8.9967 c 0,0 -4.7069,-6.1726 -4.7069,-7.5847 0,-1.412 -3.294799,7.0603 -3.294799,7.0603 l -7.9291,-10.174 c -0.29123,4.0228 -0.0667,7.6327 0.39809,11.586 l 14.120999,0.94141 c 10.826,-0.47058 24.712,-1.1766 32.478,-1.412 7.7654,-0.23536 10.502,-3.1481 10.502,-3.1481 l 12.562,-7.6778 z"
     inkscape:connector-curvature="0"
     style="color:#000000;fill:#ffffff;stroke:#000000;stroke-width:1.1179;stroke-linecap:round"
     id="path1801" />
  <path
     d="m 157.54593,168.71 c 0.63923,-10.947 7.876,-36.482 19.298,-40.009 10.952,-3.3818 20.873,-2.535 28.241,7.5312 7.3687,10.066 17.405,41.688 24.476,51.776 10.61,15.138 30.216,8.7931 28.712,13.65 -1.5034,4.8568 -25.289,2.6331 -33.51,-0.83406 -13.972,-5.8775 -22.191,-19.035 -29.254,-29.128 -12.202,-17.435 -20.077,3.6032 -27.608,5.0153 -9.032,3.457 -12.238,-2.5422 -10.355,-8.0018 z"
     inkscape:connector-curvature="0"
     style="color:#000000;fill:#aa00d4;stroke:#000000;stroke-width:1.1179;stroke-linecap:round"
     id="path1721" />
  <path
     d="m 152.61593,69.586 a -2.9654,3.3671 0 0 0 5.9308,0 -2.9654,3.3671 0 1 0 -5.9308,0 z"
     inkscape:connector-curvature="0"
     style="color:#000000;fill:#000000;stroke:#000000;stroke-width:1.3957;stroke-linecap:round"
     id="path1803" />
  <path
     d="m 130.44593,52.123 a -3.7656,4.4716 0 0 0 7.5311,0 -3.7656,4.4716 0 1 0 -7.5311,0 z"
     inkscape:connector-curvature="0"
     style="color:#000000;fill:#000000;stroke:#000000;stroke-width:1.1179;stroke-linecap:round"
     id="path1805" />
  <path
     d="m 106.66593,67.074 a -3.4244,4.0913 0 1 0 6.8488,0 -3.4244,4.0913 0 1 0 -6.8488,0 z"
     inkscape:connector-curvature="0"
     style="color:#000000;fill:#000000;stroke:#000000;stroke-width:1.1179;stroke-linecap:round"
     id="path1807" />
  <path
     d="m 89.585931,55.141 a -2.6848,4.1264 0 0 0 5.3696,0 -2.6848,4.1264 0 1 0 -5.3696,0 z"
     inkscape:connector-curvature="0"
     style="color:#000000;fill:#000000;stroke:#000000;stroke-width:1.1179;stroke-linecap:round"
     id="path1809" />
  <path
     d="m 77.555931,66.991 a -1.219,2.6131 0 1 0 2.4379,0 -1.219,2.6131 0 1 0 -2.4379,0 z"
     inkscape:connector-curvature="0"
     style="color:#000000;fill:#000000;stroke:#000000;stroke-width:1.1179;stroke-linecap:round"
     id="path1811" />
  <path
     d="m 131.82593,174.51 c -6.8588,-6.3471 -5.9241,-10.288 0.19495,-22.055 6.1189,-11.767 11.767,-22.593 20.24,-23.064 8.4725,-0.47071 16.64,7.3361 24.005,24.005 7.3656,16.669 0,51.305 7.531,57.895 7.5309,6.5896 15.129,8.5304 20.019,12.238 5.7331,4.3465 -18.136,1.0517 -26.609,-3.6553 -8.4723,-4.7069 -13.898,-7.528 -18.828,-23.645 -4.9294,-16.117 -15.659,-35.728 -10.826,-29.653 6.5957,8.2886 -8.869,14.282 -15.728,7.9348 z"
     inkscape:connector-curvature="0"
     style="color:#000000;fill:#aa00d4;stroke:#000000;stroke-width:1.1179;stroke-linecap:round"
     id="path1723" />
  <path
     d="m 210.35493,54.873 a 3.8113568,2.6997402 20.096 0 0 7.1586,2.6192 3.8113568,2.6997402 20.096 1 0 -7.1586,-2.6192 z"
     inkscape:connector-curvature="0"
     style="color:#000000;fill:#eeaaff"
     id="path1844" />
  <path
     d="m 199.70593,50.552 a 4.1461,2.9368 20.097 1 0 7.7873,2.8492 4.1461,2.9368 20.097 0 0 -7.7873,-2.8492 z"
     inkscape:connector-curvature="0"
     style="color:#000000;fill:#eeaaff"
     id="path1844-9" />
  <path
     d="m 197.72593,41.219 a 2.5746242,1.8237172 65.58 0 0 2.1288,4.6886 2.5746242,1.8237172 65.58 1 0 -2.1288,-4.6886 z"
     inkscape:connector-curvature="0"
     style="color:#000000;fill:#eeaaff"
     id="path1844-8" />
  <path
     d="m 201.05593,38.763 a 2.5746255,1.8237181 62.321 1 0 -2.3919,-4.56 2.5746255,1.8237181 62.321 0 0 2.3919,4.56 z"
     inkscape:connector-curvature="0"
     style="color:#000000;fill:#eeaaff"
     id="path1844-1" />
  <path
     d="m 188.28593,32.724 a 4.0118,2.8417 20.097 0 0 7.535,2.7569 4.0118,2.8417 20.097 0 0 -7.535,-2.7569 z"
     inkscape:connector-curvature="0"
     style="color:#000000;fill:#eeaaff"
     id="path1844-4" />
  <path
     d="m 181.73593,26.954 a 1.8237003,2.5746005 72.394 0 0 4.908,-1.5575 1.8237003,2.5746005 72.394 1 0 -4.908,1.5575 z"
     inkscape:connector-curvature="0"
     style="color:#000000;fill:#eeaaff"
     id="path1844-4-4" />
  <path
     d="m 190.28593,28.283 a 1.0461,1.4768 72.394 0 0 2.8152,-0.89336 1.0461,1.4768 72.394 1 0 -2.8152,0.89336 z"
     inkscape:connector-curvature="0"
     style="color:#000000;fill:#eeaaff"
     id="path1844-4-4-4" />
  <path
     d="m 172.17593,25.033 a 2.5746083,1.8237059 16.588 1 0 4.9349,1.4701 2.5746083,1.8237059 16.588 0 0 -4.9349,-1.4701 z"
     inkscape:connector-curvature="0"
     style="color:#000000;fill:#eeaaff"
     id="path1844-4-4-3" />
  <path
     d="m 175.72593,21.159 a 2.5746083,1.8237059 16.588 0 0 4.9349,1.4701 2.5746083,1.8237059 16.588 1 0 -4.9349,-1.4701 z"
     inkscape:connector-curvature="0"
     style="color:#000000;fill:#eeaaff"
     id="path1844-4-4-3-7" />
  <path
     d="m 167.12593,22.958 a 1.8081016,1.2807012 16.588 0 0 3.4657,1.0324 1.8081016,1.2807012 16.588 1 0 -3.4657,-1.0324 z"
     inkscape:connector-curvature="0"
     style="color:#000000;fill:#eeaaff"
     id="path1844-4-4-3-5" />
  <path
     d="m 152.76593,17.94 a 2.5746083,1.8237059 16.588 0 0 4.9349,1.4701 2.5746083,1.8237059 16.588 1 0 -4.9349,-1.4701 z"
     inkscape:connector-curvature="0"
     style="color:#000000;fill:#eeaaff"
     id="path1844-4-4-3-0" />
  <path
     d="m 151.38593,16.483 a 1.4749246,2.0822347 44.027 0 0 -2.8943,2.9943 1.4749246,2.0822347 44.027 0 0 2.8943,-2.9943 z"
     inkscape:connector-curvature="0"
     style="color:#000000;fill:#eeaaff"
     id="path1844-4-4-3-09" />
  <path
     d="m 134.53593,21.469 a 2.5212,3.5594 80.824 1 0 -7.0277,1.1352 2.5212,3.5594 80.824 0 0 7.0277,-1.1352 z"
     inkscape:connector-curvature="0"
     style="color:#000000;fill:#eeaaff"
     id="path1844-4-4-3-09-5" />
  <path
     d="m 141.38593,18.954 a 1.1442,1.6154 80.8239 1 0 -3.1894,0.51521 1.1442,1.6154 80.8239 0 0 3.1894,-0.51521 z"
     inkscape:connector-curvature="0"
     style="color:#000000;fill:#eeaaff"
     id="path1844-4-4-3-09-5-0" />
  <path
     d="m 126.79593,23.138 a 1.1442,1.6154 80.8239 1 0 -3.1894,0.51521 1.1442,1.6154 80.8239 0 0 3.1894,-0.51521 z"
     inkscape:connector-curvature="0"
     style="color:#000000;fill:#eeaaff"
     id="path1844-4-4-3-09-5-0-6" />
  <path
     d="m 143.96593,19.794 a 1.5023,2.1108 71.376 0 0 1.7417,-3.0671 1.5023,2.1108 71.376 1 0 -1.7417,3.0671 z"
     inkscape:connector-curvature="0"
     style="color:#000000;fill:#eeaaff"
     id="path1844-4-4-3-09-5-0-3" />
  <path
     d="m 123.14593,20.563 a 1.1442,1.6154 80.8239 1 0 -3.1894,0.51521 1.1442,1.6154 80.8239 0 0 3.1894,-0.51521 z"
     inkscape:connector-curvature="0"
     style="color:#000000;fill:#eeaaff"
     id="path1844-4-4-3-09-5-0-6-8" />
  <path
     d="m 118.42593,20.778 a 1.1442,1.6154 80.8239 0 0 -3.1894,0.51521 1.1442,1.6154 80.8239 1 0 3.1894,-0.51521 z"
     inkscape:connector-curvature="0"
     style="color:#000000;fill:#eeaaff"
     id="path1844-4-4-3-09-5-0-6-8-7" />
  <path
     d="m 115.42593,20.134 a 1.1442,1.6154 80.8239 1 0 -3.1894,0.51521 1.1442,1.6154 80.8239 0 0 3.1894,-0.51521 z"
     inkscape:connector-curvature="0"
     style="color:#000000;fill:#eeaaff"
     id="path1844-4-4-3-09-5-0-6-8-3" />
  <path
     d="m 223.56293,74.833 a -1.3678,2.4316 0 1 0 2.7356,0 -1.3678,2.4316 0 1 0 -2.7356,0 z"
     inkscape:connector-curvature="0"
     style="color:#000000;fill:#eeaaff"
     id="path2093" />
  <path
     d="m 222.34793,67.082 a -1.5198,2.8876 0 1 0 3.0396,0 -1.5198,2.8876 0 1 0 -3.0396,0 z"
     inkscape:connector-curvature="0"
     style="color:#000000;fill:#eeaaff"
     id="path2095" />
  <path
     d="m 221.73993,53.1 a -1.6718,1.3678 0 1 0 3.3435,0 -1.6718,1.3678 0 1 0 -3.3435,0 z"
     inkscape:connector-curvature="0"
     style="color:#000000;fill:#eeaaff"
     id="path2097" />
  <path
     d="m 222.65093,59.027 a -1.06385,1.2158571 0 0 0 2.1277,0 -1.06385,1.2158571 0 1 0 -2.1277,0 z"
     inkscape:connector-curvature="0"
     style="color:#000000;fill:#eeaaff"
     id="path2099" />
  <path
     d="m 218.69993,48.237 a -1.3678,1.6718 0 1 0 2.7356,0 -1.3678,1.6718 0 1 0 -2.7356,0 z"
     inkscape:connector-curvature="0"
     style="color:#000000;fill:#eeaaff"
     id="path2101" />
  <path
     d="m 210.79693,43.981 a -2.7356,1.3678 0 1 0 5.4712,0 -2.7356,1.3678 0 1 0 -5.4712,0 z"
     inkscape:connector-curvature="0"
     style="color:#000000;fill:#eeaaff"
     id="path2103" />
  <path
     d="m 210.18893,38.358 a -1.6718,1.2158 0 1 0 3.3435,0 -1.6718,1.2158 0 1 0 -3.3435,0 z"
     inkscape:connector-curvature="0"
     style="color:#000000;fill:#eeaaff"
     id="path2105" />
  <path
     d="m 207.45393,34.407 a -2.2797,2.1277 0 0 0 4.5593,0 -2.2797,2.1277 0 1 0 -4.5593,0 z"
     inkscape:connector-curvature="0"
     style="color:#000000;fill:#eeaaff"
     id="path2107" />
  <path
     d="m 206.54193,30.607 a -0.7599,1.367818 0 1 0 1.5198,0 -0.7599,1.367818 0 1 0 -1.5198,0 z"
     inkscape:connector-curvature="0"
     style="color:#000000;fill:#eeaaff"
     id="path2109" />
  <path
     d="m 188.91593,19.209 a -2.8876,1.8237 0 1 0 5.7752,0 -2.8876,1.8237 0 1 0 -5.7752,0 z"
     inkscape:connector-curvature="0"
     style="color:#000000;fill:#eeaaff"
     id="path2111" />
  <path
     d="m 185.56593,16.777 a -1.06385,0.91191286 0 0 0 2.1277,0 -1.06385,0.91191286 0 1 0 -2.1277,0 z"
     inkscape:connector-curvature="0"
     style="color:#000000;fill:#eeaaff"
     id="path2113" />
  <path
     d="m 169.76593,15.257 a -3.19155,1.8237286 0 1 0 6.3831,0 -3.19155,1.8237286 0 1 0 -6.3831,0 z"
     inkscape:connector-curvature="0"
     style="color:#000000;fill:#eeaaff"
     id="path2115" />
  <path
     d="m 180.09593,15.257 a -0.60791,0.91187 0 1 0 1.2158,0 -0.60791,0.91187 0 1 0 -1.2158,0 z"
     inkscape:connector-curvature="0"
     style="color:#000000;fill:#eeaaff"
     id="path2117" />
  <path
     d="m 162.77593,15.257 a -2.8876,3.0396 0 1 0 5.7752,0 -2.8876,3.0396 0 1 0 -5.7752,0 z"
     inkscape:connector-curvature="0"
     style="color:#000000;fill:#eeaaff"
     id="path2119" />
  <path
     d="m 159.12593,12.522 a -1.3678,1.2158 0 0 0 2.7356,0 -1.3678,1.2158 0 1 0 -2.7356,0 z"
     inkscape:connector-curvature="0"
     style="color:#000000;fill:#eeaaff"
     id="path2121" />
  <path
     d="m 152.74593,11.458 a -1.5198,1.0638 0 1 0 3.0396,0 -1.5198,1.0638 0 1 0 -3.0396,0 z"
     inkscape:connector-curvature="0"
     style="color:#000000;fill:#eeaaff"
     id="path2123" />
  <path
     d="m 140.58593,12.826 a -2.1277,1.2158 0 1 0 4.2554,0 -2.1277,1.2158 0 1 0 -4.2554,0 z"
     inkscape:connector-curvature="0"
     style="color:#000000;fill:#eeaaff"
     id="path2125" />
  <path
     d="m 131.76593,13.738 a -3.3435,1.5198 0 1 0 6.687,0 -3.3435,1.5198 0 1 0 -6.687,0 z"
     inkscape:connector-curvature="0"
     style="color:#000000;fill:#eeaaff"
     id="path2127" />
  <path
     d="m 161.55593,6.2906 a -2.1277,1.0638 0 0 0 4.2554,0 -2.1277,1.0638 0 1 0 -4.2554,0 z"
     inkscape:connector-curvature="0"
     style="color:#000000;fill:#eeaaff"
     id="path2129" />
  <path
     d="m 170.37593,7.5064 a -1.3678,0.75989 0 0 0 2.7356,0 -1.3678,0.75989 0 1 0 -2.7356,0 z"
     inkscape:connector-curvature="0"
     style="color:#000000;fill:#eeaaff"
     id="path2131" />
  <path
     d="m 176.75593,9.4821 a -1.2158,0.60791 0 0 0 2.4316,0 -1.2158,0.60791 0 1 0 -2.4316,0 z"
     inkscape:connector-curvature="0"
     style="color:#000000;fill:#eeaaff"
     id="path2133" />
  <path
     d="m 199.24593,17.081 a -1.5198,1.2158 0 1 0 3.0396,0 -1.5198,1.2158 0 1 0 -3.0396,0 z"
     inkscape:connector-curvature="0"
     style="color:#000000;fill:#eeaaff"
     id="path2135" />
  <path
     d="m 201.98593,20.88 a -1.6718,1.0638 0 1 0 3.3435,0 -1.6718,1.0638 0 1 0 -3.3435,0 z"
     inkscape:connector-curvature="0"
     style="color:#000000;fill:#eeaaff"
     id="path2137" />
  <path
     d="m 218.09193,37.142 a -1.06385,0.91191286 0 0 0 2.1277,0 -1.06385,0.91191286 0 1 0 -2.1277,0 z"
     inkscape:connector-curvature="0"
     style="color:#000000;fill:#eeaaff"
     id="path2139" />
  <path
     d="m 220.82793,39.726 a -1.5198,1.3678 0 0 0 3.0396,0 -1.5198,1.3678 0 1 0 -3.0396,0 z"
     inkscape:connector-curvature="0"
     style="color:#000000;fill:#eeaaff"
     id="path2141" />
  <path
     d="m 224.77893,42.765 a -0.7599,1.063814 0 1 0 1.5198,0 -0.7599,1.063814 0 1 0 -1.5198,0 z"
     inkscape:connector-curvature="0"
     style="color:#000000;fill:#eeaaff"
     id="path2143" />
  <path
     d="m 227.21093,46.869 a -0.7599,0.607918 0 1 0 1.5198,0 -0.7599,0.607918 0 1 0 -1.5198,0 z"
     inkscape:connector-curvature="0"
     style="color:#000000;fill:#eeaaff"
     id="path2145" />
  <path
     d="m 188.43593,101.12 a -6.687,6.2311 0 1 0 13.374,0 -6.687,6.2311 0 1 0 -13.374,0 z"
     inkscape:connector-curvature="0"
     style="color:#000000;fill:#eeaaff"
     id="path2147" />
  <path
     d="m 193.29593,74.377 a -4.1034,5.3192 0 1 0 8.2068,0 -4.1034,5.3192 0 1 0 -8.2068,0 z"
     inkscape:connector-curvature="0"
     style="color:#000000;fill:#eeaaff"
     id="path2149" />
  <path
     d="m 188.43593,63.89 a -2.1277,4.2554 0 1 0 4.2554,0 -2.1277,4.2554 0 1 0 -4.2554,0 z"
     inkscape:connector-curvature="0"
     style="color:#000000;fill:#eeaaff"
     id="path2151" />
  <path
     d="m 180.22593,53.556 a -2.43165,3.0396625 0 0 0 4.8633,0 -2.43165,3.0396625 0 1 0 -4.8633,0 z"
     inkscape:connector-curvature="0"
     style="color:#000000;fill:#eeaaff"
     id="path2153" />
  <path
     d="m 164.72593,37.598 a -2.8876,1.6718 0 1 0 5.7752,0 -2.8876,1.6718 0 1 0 -5.7752,0 z"
     inkscape:connector-curvature="0"
     style="color:#000000;fill:#eeaaff"
     id="path2155" />
  <path
     d="m 175.67593,38.662 a -2.2797,2.1277 0 0 0 4.5593,0 -2.2797,2.1277 0 1 0 -4.5593,0 z"
     inkscape:connector-curvature="0"
     style="color:#000000;fill:#eeaaff"
     id="path2157" />
  <path
     d="m 206.06693,72.705 a -1.6718,2.7356 0 0 0 3.3435,0 -1.6718,2.7356 0 1 0 -3.3435,0 z"
     inkscape:connector-curvature="0"
     style="color:#000000;fill:#eeaaff"
     id="path2159" />
  <path
     d="m 204.85093,87.751 a -4.2554,4.7113 0 1 0 8.5108,0 -4.2554,4.7113 0 1 0 -8.5108,0 z"
     inkscape:connector-curvature="0"
     style="color:#000000;fill:#eeaaff"
     id="path2161" />
  <path
     d="m 178.70593,117.54 a -4.55935,4.103445 0 0 0 9.1187,0 -4.55935,4.103445 0 1 0 -9.1187,0 z"
     inkscape:connector-curvature="0"
     style="color:#000000;fill:#eeaaff"
     id="path2163" />
  <path
     d="m 161.68593,127.72 a -2.8876,4.2554 0 1 0 5.7752,0 -2.8876,4.2554 0 1 0 -5.7752,0 z"
     inkscape:connector-curvature="0"
     style="color:#000000;fill:#eeaaff"
     id="path2165" />
  <path
     d="m 168.07593,122.25 a -1.06385,1.8237857 0 0 0 2.1277,0 -1.06385,1.8237857 0 1 0 -2.1277,0 z"
     inkscape:connector-curvature="0"
     style="color:#000000;fill:#eeaaff"
     id="path2167" />
  <path
     d="m 172.02593,117.39 a -2.1277,3.0396 0 0 0 4.2554,0 -2.1277,3.0396 0 1 0 -4.2554,0 z"
     inkscape:connector-curvature="0"
     style="color:#000000;fill:#eeaaff"
     id="path2169" />
  <path
     d="m 126.12593,136.54 a -4.4074,3.0396 0 0 0 8.8147,0 -4.4074,3.0396 0 1 0 -8.8147,0 z"
     inkscape:connector-curvature="0"
     style="color:#000000;fill:#eeaaff"
     id="path2171" />
  <path
     d="m 123.99593,145.13 a -2.1277,2.6494 0 0 0 4.2554,0 -2.1277,2.6494 0 1 0 -4.2554,0 z"
     inkscape:connector-curvature="0"
     style="color:#000000;fill:#eeaaff"
     id="path2173" />
  <path
     d="m 117.61593,136.69 a -2.43165,3.7995781 0 0 0 4.8633,0 -2.43165,3.7995781 0 1 0 -4.8633,0 z"
     inkscape:connector-curvature="0"
     style="color:#000000;fill:#eeaaff"
     id="path2175" />
  <path
     d="m 154.08593,32.887 a -2.7356,1.2158 0 1 0 5.4712,0 -2.7356,1.2158 0 1 0 -5.4712,0 z"
     inkscape:connector-curvature="0"
     style="color:#000000;fill:#eeaaff"
     id="path2177" />
  <path
     d="m 142.84593,29.087 a -3.19155,2.5836405 0 0 0 6.3831,0 -3.19155,2.5836405 0 1 0 -6.3831,0 z"
     inkscape:connector-curvature="0"
     style="color:#000000;fill:#eeaaff"
     id="path2179" />
  <path
     d="m 133.42593,29.847 a -2.7356,2.1277 0 1 0 5.4712,0 -2.7356,2.1277 0 1 0 -5.4712,0 z"
     inkscape:connector-curvature="0"
     style="color:#000000;fill:#eeaaff"
     id="path2185" />
  <path
     d="m 121.87593,33.343 a -2.1277,2.2797 0 0 0 4.2554,0 -2.1277,2.2797 0 1 0 -4.2554,0 z"
     inkscape:connector-curvature="0"
     style="color:#000000;fill:#eeaaff"
     id="path2187" />
  <path
     d="m 106.67593,30.151 a -2.7356,2.1277 0 0 0 5.4712,0 -2.7356,2.1277 0 1 0 -5.4712,0 z"
     inkscape:connector-curvature="0"
     style="color:#000000;fill:#eeaaff"
     id="path2189" />
  <path
     d="m 90.565931,37.75 a -2.58365,1.5198294 0 0 0 5.1673,0 -2.58365,1.5198294 0 1 0 -5.1673,0 z"
     inkscape:connector-curvature="0"
     style="color:#000000;fill:#eeaaff"
     id="path2191" />
  <path
     d="m 98.765931,34.407 a -1.6718,2.1277 0 1 0 3.343499,0 -1.6718,2.1277 0 1 0 -3.343499,0 z"
     inkscape:connector-curvature="0"
     style="color:#000000;fill:#eeaaff"
     id="path2193" />
  <path
     d="m 88.445931,40.116 a 1.8237316,2.7356473 60.396 1 0 1.8019,3.1713 1.8237316,2.7356473 60.396 1 0 -1.8019,-3.1713 z"
     inkscape:connector-curvature="0"
     style="color:#000000;fill:#eeaaff"
     id="path2195" />
  <path
     d="m 83.615931,46.411 a 1.0638658,1.9758222 16.699 1 0 2.038,0.61139 1.0638658,1.9758222 16.699 0 0 -2.038,-0.61139 z"
     inkscape:connector-curvature="0"
     style="color:#000000;fill:#eeaaff"
     id="path2197" />
  <path
     d="m 187.52593,86.079 a -5.4712,5.4712 0 0 0 10.942,0 -5.4712,5.4712 0 1 0 -10.942,0 z"
     inkscape:connector-curvature="0"
     style="color:#000000;fill:#eeaaff"
     id="path2199" />
  <path
     d="m 107.85593,138.1 a -2.6063,2.6063 0 0 0 5.2126,0 -2.6063,2.6063 0 1 0 -5.2126,0 z"
     inkscape:connector-curvature="0"
     style="color:#000000;fill:#eca4fd"
     id="path2219" />
  <path
     d="m 74.335931,83.781 a -2.6063,2.1719 0 0 0 5.2126,0 -2.6063,2.1719 0 1 0 -5.2126,0 z"
     inkscape:connector-curvature="0"
     style="color:#000000;fill:#eca4fd"
     id="path2221" />
  <path
     d="m 80.055931,54.701 a -0.86877,1.7375 0 1 0 1.7375,0 -0.86877,1.7375 0 1 0 -1.7375,0 z"
     inkscape:connector-curvature="0"
     style="color:#000000;fill:#eca4fd"
     id="path2223" />
  <path
     d="m 71.185931,84.93 a -1.3032,1.7375 0 0 0 2.6063,0 -1.3032,1.7375 0 1 0 -2.6063,0 z"
     inkscape:connector-curvature="0"
     style="color:#000000;fill:#eca4fd"
     id="path2225" />
  <path
     d="m 150.87593,3.745 a 2.5746083,1.8237059 16.588 0 0 4.9349,1.4701 2.5746083,1.8237059 16.588 1 0 -4.9349,-1.4701 z"
     inkscape:connector-curvature="0"
     style="color:#000000;fill:#eeaaff"
     id="path1844-4-4-3-7-0" />
  <path
     d="m 147.00593,4.1586 a 1.7587455,1.9630508 39.917 0 0 -0.80332,3.7399 1.7587455,1.9630508 39.917 1 0 0.80332,-3.7399 z"
     inkscape:connector-curvature="0"
     style="color:#000000;fill:#eeaaff"
     id="path1844-4-4-3-7-1" />
  <path
     d="m 140.26593,7.9901 a 1.7709,0.93542 21.212 0 0 -0.1803,-2.0115 1.7709,0.93542 21.212 1 0 0.1803,2.0115 z"
     inkscape:connector-curvature="0"
     style="color:#000000;fill:#eeaaff"
     id="path1844-4-4-3-7-1-3" />
  <path
     d="m 133.12593,7.6167 a -1.06385,0.91191286 0 0 0 2.1277,0 -1.06385,0.91191286 0 1 0 -2.1277,0 z"
     inkscape:connector-curvature="0"
     style="color:#000000;fill:#eeaaff"
     id="path2113-6" />
  <path
     d="m 123.77593,8.0682 a -2.7356,1.3678 0 1 0 5.4712,0 -2.7356,1.3678 0 1 0 -5.4712,0 z"
     inkscape:connector-curvature="0"
     style="color:#000000;fill:#eeaaff"
     id="path2103-5" />
  <path
     d="m 117.39593,9.5361 a -2.1147,1.2549 0 1 0 4.2294,0 -2.1147,1.2549 0 1 0 -4.2294,0 z"
     inkscape:connector-curvature="0"
     style="color:#000000;fill:#eeaaff"
     id="path2109-6" />
  <path
     d="m 112.79593,10.552 a -1.5198,1.2158 0 1 0 3.0396,0 -1.5198,1.2158 0 1 0 -3.0396,0 z"
     inkscape:connector-curvature="0"
     style="color:#000000;fill:#eeaaff"
     id="path2135-9" />
  <path
     d="m 108.95593,13.149 a -0.95527,0.65131 0 1 0 1.9105,0 -0.95527,0.65131 0 1 0 -1.9105,0 z"
     inkscape:connector-curvature="0"
     style="color:#000000;fill:#eeaaff"
     id="path2135-8" />
  <path
     d="m 126.08593,15.699 a 1.5023,2.1108 71.376 0 0 1.7417,-3.0671 1.5023,2.1108 71.376 1 0 -1.7417,3.0671 z"
     inkscape:connector-curvature="0"
     style="color:#000000;fill:#eeaaff"
     id="path1844-4-4-3-09-5-0-3-5" />
  <path
     d="m 118.10593,15.289 a 1.0461,1.4768 72.394 0 0 2.8152,-0.89336 1.0461,1.4768 72.394 1 0 -2.8152,0.89336 z"
     inkscape:connector-curvature="0"
     style="color:#000000;fill:#eeaaff"
     id="path1844-4-4-4-7" />
  <path
     d="m 115.07593,15.039 a -1.10725,0.87715961 0 0 0 2.2145,0 -1.10725,0.87715961 0 1 0 -2.2145,0 z"
     inkscape:connector-curvature="0"
     style="color:#000000;fill:#eeaaff"
     id="path2105-4" />
  <path
     d="m 108.87593,22.132 a -1.6718,1.2158 0 1 0 3.3435,0 -1.6718,1.2158 0 1 0 -3.3435,0 z"
     inkscape:connector-curvature="0"
     style="color:#000000;fill:#eeaaff"
     id="path2105-1" />
  <path
     d="m 108.08593,17.774 a -1.1766,0.81967 0 1 0 2.3531,0 -1.1766,0.81967 0 1 0 -2.3531,0 z"
     inkscape:connector-curvature="0"
     style="color:#000000;fill:#eeaaff"
     id="path2105-8" />
  <path
     d="m 108.12593,18.444 a 0.81967,1.1766 38.963 1 0 -1.4797,1.8297 0.81967,1.1766 38.963 1 0 1.4797,-1.8297 z"
     inkscape:connector-curvature="0"
     style="color:#000000;fill:#eeaaff"
     id="path2105-8-1" />
  <path
     d="m 102.26593,22.33 a -0.95527,0.65131 0 1 0 1.9105,0 -0.95527,0.65131 0 1 0 -1.9105,0 z"
     inkscape:connector-curvature="0"
     style="color:#000000;fill:#eeaaff"
     id="path2135-8-9" />
  <path
     d="m 98.075931,20.011 a -0.95527,0.65131 0 1 0 1.9105,0 -0.95527,0.65131 0 1 0 -1.9105,0 z"
     inkscape:connector-curvature="0"
     style="color:#000000;fill:#eeaaff"
     id="path2135-8-4" />
  <path
     d="m 92.685931,22.422 a -1.2524,1.1465 0 0 0 2.5048,0 -1.2524,1.1465 0 1 0 -2.5048,0 z"
     inkscape:connector-curvature="0"
     style="color:#000000;fill:#eeaaff"
     id="path2135-8-47" />
  <path
     d="m 90.085931,24.369 a -0.95527,0.65131 0 1 0 1.9105,0 -0.95527,0.65131 0 1 0 -1.9105,0 z"
     inkscape:connector-curvature="0"
     style="color:#000000;fill:#eeaaff"
     id="path2135-8-47-8" />
  <path
     d="m 95.915931,24.443 a -0.95527,0.65131 0 1 0 1.9105,0 -0.95527,0.65131 0 1 0 -1.9105,0 z"
     inkscape:connector-curvature="0"
     style="color:#000000;fill:#eeaaff"
     id="path2135-8-47-9" />
  <path
     d="m 98.095931,22.755 a -0.95527,0.65131 0 1 0 1.910499,0 -0.95527,0.65131 0 1 0 -1.910499,0 z"
     inkscape:connector-curvature="0"
     style="color:#000000;fill:#eeaaff"
     id="path2135-8-47-2" />
  <path
     d="m 105.63593,14.605 a -1.6485,1.0475 0 1 0 3.297,0 -1.6485,1.0475 0 1 0 -3.297,0 z"
     inkscape:connector-curvature="0"
     style="color:#000000;fill:#eeaaff"
     id="path2135-8-47-7" />
  <path
     d="m 102.66593,16.586 a -0.95527,0.65131 0 1 0 1.9105,0 -0.95527,0.65131 0 1 0 -1.9105,0 z"
     inkscape:connector-curvature="0"
     style="color:#000000;fill:#eeaaff"
     id="path2135-8-47-28" />
  <path
     d="m 229.66293,73.48 a -1.4266,2.1306 0 1 0 2.8532,0 -1.4266,2.1306 0 1 0 -2.8532,0 z"
     inkscape:connector-curvature="0"
     style="color:#000000;fill:#eeaaff"
     id="path2143-0" />
  <path
     d="m 229.92893,67.613 a -0.7599,1.063814 0 1 0 1.5198,0 -0.7599,1.063814 0 1 0 -1.5198,0 z"
     inkscape:connector-curvature="0"
     style="color:#000000;fill:#eeaaff"
     id="path2143-2" />
  <path
     d="m 229.39593,59.346 a -0.7599,1.063814 0 1 0 1.5198,0 -0.7599,1.063814 0 1 0 -1.5198,0 z"
     inkscape:connector-curvature="0"
     style="color:#000000;fill:#eeaaff"
     id="path2143-5" />
  <path
     d="m 228.86193,55.879 a -0.7599,1.063814 0 1 0 1.5198,0 -0.7599,1.063814 0 1 0 -1.5198,0 z"
     inkscape:connector-curvature="0"
     style="color:#000000;fill:#eeaaff"
     id="path2143-1" />
  <path
     d="m 217.66193,34.278 a -0.7599,1.063814 0 1 0 1.5198,0 -0.7599,1.063814 0 1 0 -1.5198,0 z"
     inkscape:connector-curvature="0"
     style="color:#000000;fill:#eeaaff"
     id="path2143-4" />
  <path
     d="m 208.32893,22.816 a 1.6718,1.0638 39.41 1 0 2.5833,2.1227 1.6718,1.0638 39.41 1 0 -2.5833,-2.1227 z"
     inkscape:connector-curvature="0"
     style="color:#000000;fill:#eeaaff"
     id="path2137-2" />
  <path
     d="m 229.39593,80.948 a -1.1599,2.3973 0 1 0 2.3198,0 -1.1599,2.3973 0 1 0 -2.3198,0 z"
     inkscape:connector-curvature="0"
     style="color:#000000;fill:#eeaaff"
     id="path2143-2-9" />
  <path
     d="m 227.79593,86.015 a -0.7599,1.063814 0 1 0 1.5198,0 -0.7599,1.063814 0 1 0 -1.5198,0 z"
     inkscape:connector-curvature="0"
     style="color:#000000;fill:#eeaaff"
     id="path2143-2-6" />
  <path
     d="m 214.72793,63.746 a -1.55995,2.2639726 0 1 0 3.1199,0 -1.55995,2.2639726 0 1 0 -3.1199,0 z"
     inkscape:connector-curvature="0"
     style="color:#000000;fill:#eeaaff"
     id="path2143-2-5" />
  <path
     d="m 216.88893,78.102 a 2.5306632,0.89325232 75.654 1 0 1.7308,-0.44264 2.5306632,0.89325232 75.654 1 0 -1.7308,0.44264 z"
     inkscape:connector-curvature="0"
     style="color:#000000;fill:#eeaaff"
     id="path2143-2-0" />
  <path
     d="m 216.59493,70.014 a -0.7599,1.063814 0 1 0 1.5198,0 -0.7599,1.063814 0 1 0 -1.5198,0 z"
     inkscape:connector-curvature="0"
     style="color:#000000;fill:#eeaaff"
     id="path2143-2-1" />
  <path
     d="m 222.85893,81.344 a -0.94846,2.3839 0 1 0 1.8969,0 -0.94846,2.3839 0 1 0 -1.8969,0 z"
     inkscape:connector-curvature="0"
     style="color:#000000;fill:#eeaaff"
     id="path2143-2-02" />
  <metadata
     id="metadata141">
    <rdf:RDF>
      <cc:Work>
        <dc:format>image/svg+xml</dc:format>
        <dc:type
           rdf:resource="http://purl.org/dc/dcmitype/StillImage" />
        <cc:license
           rdf:resource="http://creativecommons.org/publicdomain/zero/1.0/" />
        <dc:publisher>
          <cc:Agent
             rdf:about="http://openclipart.org/">
            <dc:title>Openclipart</dc:title>
          </cc:Agent>
        </dc:publisher>
        <dc:title>fukushima mutant</dc:title>
      </cc:Work>
      <cc:License
         rdf:about="http://creativecommons.org/publicdomain/zero/1.0/">
        <cc:permits
           rdf:resource="http://creativecommons.org/ns#Reproduction" />
        <cc:permits
           rdf:resource="http://creativecommons.org/ns#Distribution" />
        <cc:permits
           rdf:resource="http://creativecommons.org/ns#DerivativeWorks" />
      </cc:License>
    </rdf:RDF>
  </metadata>
</svg>
